<svg width="285" height="69" viewBox="0 0 285 69" fill="none" xmlns="http://www.w3.org/2000/svg">
<path fill-rule="evenodd" clip-rule="evenodd" d="M7.94991 16.8275C8.86651 17.2372 9.94166 16.8262 10.3513 15.9096L10.353 15.906L10.3573 15.8964L10.3631 15.8836C10.3727 15.8625 10.388 15.8293 10.4086 15.7849C10.45 15.6959 10.5133 15.5619 10.5972 15.3893C10.7652 15.0439 11.0156 14.5451 11.3394 13.9444C11.9892 12.7387 12.9235 11.1429 14.0694 9.55789C15.2225 7.96286 16.5451 6.44145 17.9568 5.33417C19.3767 4.2205 20.7436 3.63574 22.0275 3.63574C23.3113 3.63574 24.6782 4.2205 26.0981 5.33417C27.5098 6.44145 28.8324 7.96286 29.9855 9.55789C31.1314 11.1429 32.0657 12.7387 32.7155 13.9444C33.0393 14.5451 33.2897 15.0439 33.4577 15.3893C33.49 15.4558 33.5192 15.5165 33.5453 15.5711V45.2763C33.5453 46.2803 34.3592 47.0942 35.3632 47.0942C36.3672 47.0942 37.1811 46.2803 37.1811 45.2763V15.5711C37.2072 15.5165 37.2364 15.4558 37.2688 15.3893C37.4368 15.0439 37.6872 14.5451 38.0109 13.9444C38.6607 12.7387 39.5951 11.1429 40.7409 9.55789C41.894 7.96286 43.2167 6.44145 44.6284 5.33417C46.0482 4.2205 47.4152 3.63574 48.699 3.63574C50.8163 3.63574 53.0907 5.23758 55.2507 7.76345C57.333 10.1983 58.9463 13.0662 59.7818 14.6946C60.0704 15.2573 60.2169 15.9118 60.2169 16.6219V45.1317C60.2169 46.0286 59.9833 46.8533 59.5344 47.5239C58.5397 49.01 56.8539 51.3331 54.8012 53.4097C52.7057 55.5296 50.4392 57.1741 48.3058 57.6467C47.0784 57.9187 45.3431 57.9329 43.7987 57.8523C43.0503 57.8132 42.3884 57.7545 41.9143 57.7056C41.6778 57.6812 41.4894 57.6594 41.3619 57.6439C41.2982 57.6361 41.2498 57.63 41.2183 57.6259C41.2026 57.6239 41.1911 57.6224 41.184 57.6214L41.1764 57.6204C40.1816 57.4846 39.2651 58.1809 39.1293 59.1757C38.9935 60.1704 39.6898 61.0869 40.6845 61.2227L40.9304 59.4216C40.6845 61.2227 40.6847 61.2228 40.685 61.2228L40.6855 61.2229L40.6869 61.2231L40.6911 61.2236L40.7046 61.2254C40.7159 61.2269 40.7318 61.229 40.752 61.2316C40.7924 61.2369 40.8501 61.2442 40.9236 61.2531C41.0705 61.2709 41.2808 61.2953 41.5412 61.3221C42.0609 61.3758 42.7858 61.4401 43.6092 61.4831C45.2086 61.5665 47.3576 61.5807 49.0922 61.1964C52.2717 60.492 55.1512 58.2274 57.3869 55.9656C58.6465 54.6913 59.7693 53.3479 60.7005 52.1338C62.0747 56.585 66.2217 59.8192 71.1241 59.8192C77.148 59.8192 82.0313 54.9359 82.0313 48.912C82.0313 42.8881 77.148 38.0048 71.1241 38.0048C68.3306 38.0048 65.7823 39.055 63.8526 40.7821V16.6219C63.8526 15.4148 63.6031 14.1781 63.0166 13.0349C62.129 11.3051 60.3647 8.14947 58.0139 5.40048C55.7408 2.74247 52.5267 0 48.699 0C46.2983 0 44.156 1.08398 42.3845 2.47343C40.6049 3.86927 39.0542 5.68535 37.7945 7.42781C36.8292 8.76299 36.0086 10.0919 35.3632 11.2228C34.7179 10.0919 33.8972 8.76299 32.9319 7.42781C31.6722 5.68535 30.1215 3.86927 28.3419 2.47343C26.5704 1.08398 24.4282 0 22.0275 0C19.6267 0 17.4845 1.08398 15.713 2.47343C13.9334 3.86927 12.3827 5.68535 11.123 7.42781C9.856 9.18033 8.83812 10.922 8.13886 12.2195C7.7881 12.8703 7.51476 13.4145 7.32769 13.7991C7.2341 13.9915 7.16195 14.1443 7.11234 14.251C7.08752 14.3043 7.06834 14.3461 7.05491 14.3755C7.0482 14.3902 7.04292 14.4019 7.03911 14.4103L7.03447 14.4206L7.03244 14.4252C7.03223 14.4256 7.03204 14.4261 8.65278 15.1505L7.03204 14.4261C6.62237 15.3427 7.03332 16.4178 7.94991 16.8275ZM78.3956 48.912C78.3956 52.9279 75.14 56.1835 71.1241 56.1835C67.1082 56.1835 63.8526 52.9279 63.8526 48.912C63.8526 44.8961 67.1082 41.6405 71.1241 41.6405C75.14 41.6405 78.3956 44.8961 78.3956 48.912Z" fill="#1E1E1E"/>
<path d="M10.5096 23.2346C10.5096 22.2306 9.69566 21.4168 8.69168 21.4168C7.6877 21.4168 6.87381 22.2306 6.87381 23.2346V31.5287H1.81787C0.813887 31.5287 0 32.3425 0 33.3465C0 34.3505 0.813887 35.1644 1.81787 35.1644H6.87381V45.2589C6.87381 46.6816 7.22082 48.1315 8.01465 49.4159C8.97327 50.9669 10.6565 53.4847 12.7869 55.8032C14.8753 58.0761 17.6007 60.3889 20.6792 61.182C22.6035 61.6777 25.0026 61.6586 26.7837 61.5517C27.702 61.4965 28.5112 61.4139 29.0916 61.3451C29.3824 61.3106 29.6173 61.2794 29.7815 61.2565C29.8637 61.2451 29.9283 61.2357 29.9734 61.229C29.996 61.2256 30.0138 61.2229 30.0264 61.221L30.0416 61.2187L30.0479 61.2177L30.0485 61.2176C30.0487 61.2176 30.049 61.2175 29.7676 59.4216L30.049 61.2175C31.0409 61.0621 31.719 60.1321 31.5636 59.1402C31.4082 58.1485 30.4785 57.4705 29.4868 57.6255L29.4866 57.6256L29.4862 57.6256L29.4858 57.6257L29.4778 57.6269C29.4699 57.6281 29.4571 57.63 29.4396 57.6327C29.4045 57.6379 29.3505 57.6457 29.2795 57.6556C29.1373 57.6754 28.9272 57.7034 28.6636 57.7346C28.1352 57.7973 27.398 57.8725 26.5657 57.9225C24.8458 58.0258 22.9275 58.0067 21.5862 57.6612C19.5513 57.1369 17.419 55.4708 15.4641 53.3433C13.5511 51.2613 12.0052 48.9571 11.1074 47.5044C10.713 46.8663 10.5096 46.0962 10.5096 45.2589V35.1644H15.5655C16.5695 35.1644 17.3834 34.3505 17.3834 33.3465C17.3834 32.3425 16.5695 31.5287 15.5655 31.5287H10.5096V23.2346Z" fill="#1E1E1E"/>
<path d="M107.449 24.196C105.906 24.196 104.492 23.9389 103.207 23.4247C101.941 22.8907 100.833 22.1391 99.884 21.1701C98.9544 20.201 98.2326 19.0638 97.7184 17.7585C97.2042 16.4334 96.9471 14.9897 96.9471 13.4273C96.9471 11.8451 97.2042 10.3915 97.7184 9.06642C98.2326 7.72157 98.9544 6.56461 99.884 5.59552C100.833 4.60666 101.941 3.84524 103.207 3.31126C104.492 2.77727 105.906 2.50039 107.449 2.48062C108.161 2.48062 108.922 2.56961 109.733 2.74761C110.564 2.9256 111.394 3.17282 112.225 3.48925C113.075 3.78591 113.857 4.1419 114.569 4.55722V8.91809H113.352C113.372 8.24567 113.204 7.60291 112.848 6.98982C112.492 6.37672 112.007 5.82296 111.394 5.32853C110.781 4.8341 110.079 4.44845 109.288 4.17157C108.517 3.87491 107.706 3.72658 106.855 3.72658C105.649 3.72658 104.581 4.0529 103.652 4.70555C102.722 5.3582 101.99 6.25806 101.456 7.40514C100.942 8.55221 100.685 9.88717 100.685 11.41C100.685 13.6646 101.001 15.6621 101.634 17.4025C102.267 19.1429 103.127 20.5075 104.215 21.4964C105.323 22.4655 106.588 22.95 108.012 22.95C109.061 22.95 109.98 22.7325 110.771 22.2974C111.582 21.8623 112.215 21.2492 112.67 20.4581C113.125 19.667 113.352 18.7671 113.352 17.7585H114.569V22.1194C113.857 22.5149 113.075 22.8709 112.225 23.1873C111.394 23.5038 110.564 23.751 109.733 23.929C108.922 24.107 108.161 24.196 107.449 24.196ZM120.152 24.196C119.163 24.196 118.352 23.9685 117.719 23.5137C117.106 23.039 116.661 22.4358 116.384 21.704C116.127 20.9723 115.999 20.1911 115.999 19.3604C115.999 18.688 116.216 18.1046 116.651 17.6102C117.086 17.096 117.689 16.6707 118.461 16.3345C119.252 15.9785 120.162 15.7116 121.19 15.5336C122.218 15.3358 123.306 15.227 124.453 15.2072L124.038 15.6226V12.7153C124.038 11.766 123.84 10.9947 123.445 10.4014C123.049 9.78829 122.584 9.48174 122.05 9.48174C121.516 9.48174 121.042 9.6004 120.626 9.83773C120.211 10.0751 119.885 10.4014 119.647 10.8167C119.41 11.2122 119.272 11.6671 119.232 12.1813C119.232 12.3791 119.222 12.5571 119.202 12.7153C119.202 12.8735 119.202 13.0317 119.202 13.19L116.414 13.8426C116.394 13.6844 116.384 13.5064 116.384 13.3086C116.384 13.1109 116.384 12.9131 116.384 12.7153C116.384 11.8649 116.631 11.1232 117.126 10.4904C117.64 9.83773 118.362 9.33341 119.291 8.97742C120.241 8.60165 121.368 8.41377 122.673 8.41377C123.544 8.41377 124.305 8.57199 124.958 8.88842C125.63 9.20486 126.154 9.63996 126.53 10.1937C126.906 10.7475 127.094 11.3902 127.094 12.122V22.6533L126.649 22.149L129.556 22.594V23.1577L124.394 24.2256L124.068 23.9883L124.038 21.7634L124.305 21.971C123.672 22.6039 123 23.1379 122.288 23.573C121.595 23.9883 120.883 24.196 120.152 24.196ZM121.338 22.505C121.833 22.505 122.317 22.3072 122.792 21.9117C123.267 21.4964 123.771 20.9921 124.305 20.3987L124.038 21.1107V15.9192L124.572 16.3939C122.792 16.4334 121.437 16.6114 120.508 16.9278C119.578 17.2245 119.113 17.7585 119.113 18.5298C119.113 19.2022 119.212 19.845 119.41 20.4581C119.608 21.0712 119.875 21.5656 120.211 21.9414C120.547 22.3171 120.923 22.505 121.338 22.505ZM137.888 24.1663C137.512 24.1663 137.037 24.0773 136.464 23.8993C135.91 23.7411 135.336 23.4642 134.743 23.0687L135.069 22.8313V28.6162L134.654 28.0525L137.68 29.0908V29.6841H129.314V29.0908L132.311 28.0525L131.895 28.6162V10.4904L132.34 10.9947L128.988 10.52V9.98606L134.654 8.59177L134.921 8.82909L135.099 10.7574L134.802 10.52C135.514 9.88717 136.276 9.37297 137.087 8.97742C137.917 8.58188 138.659 8.38411 139.312 8.38411C140.478 8.38411 141.517 8.70054 142.427 9.33341C143.336 9.96628 144.048 10.8365 144.562 11.944C145.077 13.0515 145.334 14.3271 145.334 15.7709C145.334 17.4124 145.017 18.866 144.384 20.1318C143.752 21.3975 142.872 22.3864 141.744 23.0983C140.637 23.8103 139.351 24.1663 137.888 24.1663ZM135.069 22.2084L134.773 21.4964C135.406 22.0699 136.039 22.4753 136.671 22.7127C137.324 22.9302 137.858 23.039 138.273 23.039C138.966 23.039 139.579 22.7621 140.113 22.2084C140.666 21.6348 141.092 20.8536 141.388 19.8648C141.705 18.8759 141.863 17.7387 141.863 16.4532C141.863 15.1875 141.695 14.0799 141.359 13.1306C141.042 12.1615 140.607 11.41 140.053 10.876C139.5 10.3223 138.857 10.0454 138.125 10.0454C137.611 10.0454 137.047 10.2333 136.434 10.609C135.841 10.965 135.317 11.4199 134.862 11.9737L135.069 11.2617V22.2084ZM146.782 23.7213V23.128L149.63 22.1194L149.215 22.683V10.5497L149.66 11.0244L146.307 10.5794V10.0157L151.944 8.41377L152.508 8.71043L152.33 12.033L152.122 11.944L154.317 8.38411C154.792 8.32477 155.266 8.33466 155.741 8.41377C156.236 8.4731 156.71 8.58188 157.165 8.7401C157.62 8.89831 158.035 9.11586 158.411 9.39274L157.106 12.1517C156.69 11.8352 156.255 11.5979 155.8 11.4397C155.346 11.2617 154.93 11.1727 154.555 11.1727C154.199 11.1727 153.872 11.3507 153.576 11.7067C153.279 12.0627 152.903 12.5966 152.448 13.3086C152.389 13.4075 152.31 13.5163 152.211 13.6349C152.132 13.7536 152.063 13.8822 152.003 14.0206L152.33 13.012V22.683L151.914 22.1194L155.296 23.128V23.7213H146.782ZM158.467 23.7213V23.128L161.552 22.1194L161.137 22.8017V10.431L161.582 11.0244L158.229 10.5794V10.0157L164.074 8.41377L164.37 8.68076L164.311 10.876V22.772L163.896 22.06L166.981 23.128V23.7213H158.467ZM162.323 6.07018C161.73 6.07018 161.226 5.86251 160.81 5.44719C160.415 5.03187 160.217 4.53744 160.217 3.96391C160.217 3.39037 160.415 2.89594 160.81 2.48062C161.226 2.0653 161.73 1.85764 162.323 1.85764C162.877 1.85764 163.352 2.0653 163.747 2.48062C164.163 2.89594 164.37 3.39037 164.37 3.96391C164.37 4.53744 164.163 5.03187 163.747 5.44719C163.352 5.86251 162.877 6.07018 162.323 6.07018ZM174.593 24.1366C173.268 24.1366 172.091 23.8202 171.063 23.1873C170.054 22.5545 169.263 21.6843 168.689 20.5767C168.116 19.4494 167.829 18.1639 167.829 16.7202C167.829 15.1182 168.116 13.7042 168.689 12.478C169.263 11.2518 170.074 10.2827 171.122 9.57074C172.19 8.85876 173.426 8.4731 174.83 8.41377C175.166 8.39399 175.572 8.42366 176.046 8.50277C176.521 8.58188 177.035 8.67088 177.589 8.76976C177.945 8.84887 178.291 8.92798 178.627 9.00709C178.964 9.06642 179.26 9.0862 179.517 9.06642V13.6943H178.242C178.143 12.923 177.905 12.211 177.53 11.5583C177.174 10.8859 176.729 10.3519 176.195 9.95639C175.681 9.54107 175.107 9.33341 174.474 9.33341C173.782 9.35319 173.179 9.62018 172.665 10.1344C172.15 10.6486 171.745 11.3705 171.448 12.3C171.152 13.2295 171.003 14.2975 171.003 15.5039C171.003 16.829 171.211 18.0057 171.626 19.0341C172.042 20.0625 172.605 20.8734 173.317 21.4667C174.029 22.06 174.84 22.3567 175.75 22.3567C176.284 22.3567 176.907 22.1985 177.619 21.882C178.331 21.5656 178.973 21.1701 179.547 20.6954L180.17 21.4964C179.498 22.2677 178.637 22.9006 177.589 23.395C176.561 23.8894 175.562 24.1366 174.593 24.1366ZM188.962 24.1663C187.538 24.1663 186.263 23.8202 185.135 23.128C184.028 22.4358 183.158 21.4865 182.525 20.2801C181.912 19.0539 181.605 17.6596 181.605 16.0972C181.605 14.5941 181.912 13.2691 182.525 12.122C183.158 10.9551 184.028 10.0454 185.135 9.39274C186.263 8.72032 187.538 8.38411 188.962 8.38411C190.386 8.38411 191.642 8.70054 192.73 9.33341C193.837 9.96628 194.698 10.8464 195.311 11.9737C195.924 13.0812 196.23 14.3568 196.23 15.8005C196.23 17.4223 195.924 18.866 195.311 20.1318C194.698 21.3975 193.837 22.3864 192.73 23.0983C191.642 23.8103 190.386 24.1663 188.962 24.1663ZM189.407 23.0983C190.436 23.0983 191.237 22.5347 191.81 21.4074C192.403 20.2603 192.7 18.6979 192.7 16.7202C192.7 14.4656 192.324 12.6955 191.573 11.41C190.841 10.1047 189.822 9.45207 188.517 9.45207C187.469 9.45207 186.638 9.96628 186.025 10.9947C185.432 12.0231 185.135 13.4471 185.135 15.2666C185.135 17.6992 185.511 19.6175 186.263 21.0217C187.034 22.4061 188.082 23.0983 189.407 23.0983ZM197.686 23.7213V23.128L200.533 22.1194L200.118 22.683V10.5497L200.563 11.0244L197.211 10.5794V10.0157L202.847 8.41377L203.411 8.71043L203.233 12.033L203.025 11.944L205.221 8.38411C205.695 8.32477 206.17 8.33466 206.645 8.41377C207.139 8.4731 207.614 8.58188 208.069 8.7401C208.523 8.89831 208.939 9.11586 209.315 9.39274L208.009 12.1517C207.594 11.8352 207.159 11.5979 206.704 11.4397C206.249 11.2617 205.834 11.1727 205.458 11.1727C205.102 11.1727 204.776 11.3507 204.479 11.7067C204.182 12.0627 203.807 12.5966 203.352 13.3086C203.292 13.4075 203.213 13.5163 203.114 13.6349C203.035 13.7536 202.966 13.8822 202.907 14.0206L203.233 13.012V22.683L202.818 22.1194L206.2 23.128V23.7213H197.686ZM209.602 23.7213V23.128L212.717 22.0897L212.272 22.7127V10.52L212.806 11.054L209.365 10.5794V10.0157L215.209 8.41377L215.505 8.6511L215.446 11.143L215.149 10.9057C215.604 10.4904 216.109 10.0948 216.662 9.71907C217.216 9.3433 217.78 9.03675 218.353 8.79943C218.927 8.5621 219.461 8.44344 219.955 8.44344C220.984 8.44344 221.884 8.63132 222.655 9.00709C223.426 9.38285 224.029 9.90695 224.464 10.5794C224.9 11.232 225.117 11.9934 225.117 12.8636V22.7127L224.672 22.0897L227.698 23.128V23.7213H219.807V23.128L222.418 22.0304L221.943 22.7423V13.6943C221.943 12.567 221.676 11.6671 221.142 10.9947C220.608 10.3223 219.906 9.98606 219.036 9.98606C218.66 9.98606 218.235 10.1047 217.76 10.342C217.305 10.5794 216.85 10.8859 216.395 11.2617C215.94 11.6177 215.525 12.0033 215.149 12.4187L215.446 11.6177V22.7423L214.971 22.0304L217.612 23.128V23.7213H209.602ZM100.744 61.7213V61.128L103.889 60.0897L103.474 60.683V41.9936L103.919 42.4386H98.46L99.083 42.0529L96.5317 46.8884H95.8494L96.8877 40.9553H113.352L114.361 46.8884H113.708L111.157 42.0529L111.78 42.4386H106.381L106.826 41.8156V60.683L106.41 60.0897L109.347 61.1577V61.7213H100.744ZM119.635 62.1366C118.31 62.1366 117.133 61.8202 116.105 61.1873C115.076 60.5347 114.265 59.6447 113.672 58.5174C113.099 57.3901 112.812 56.1046 112.812 54.6609C112.812 53.0391 113.108 51.6152 113.702 50.389C114.295 49.143 115.126 48.1641 116.194 47.4521C117.262 46.7401 118.488 46.3841 119.872 46.3841C121.039 46.3841 122.058 46.6511 122.928 47.1851C123.818 47.6993 124.51 48.4409 125.004 49.41C125.519 50.3593 125.776 51.4965 125.776 52.8216C125.776 52.96 125.776 53.1083 125.776 53.2666C125.776 53.405 125.766 53.5533 125.746 53.7116H115.63L116.134 53.2666C116.115 54.651 116.283 55.887 116.639 56.9748C116.995 58.0428 117.509 58.8833 118.181 59.4964C118.854 60.1095 119.635 60.416 120.525 60.416C121.197 60.416 121.939 60.238 122.75 59.882C123.561 59.526 124.253 59.0613 124.826 58.4877L125.538 59.348C125.143 59.9018 124.619 60.3864 123.966 60.8017C123.333 61.217 122.641 61.5433 121.889 61.7806C121.158 62.018 120.406 62.1366 119.635 62.1366ZM116.075 53.0589L115.571 52.6139L122.631 52.4359L122.394 52.9106C122.374 51.7833 122.206 50.834 121.889 50.0627C121.573 49.2716 121.158 48.6684 120.644 48.253C120.129 47.8377 119.556 47.6301 118.923 47.6301C118.369 47.6301 117.875 47.8476 117.44 48.2827C117.005 48.698 116.658 49.3111 116.401 50.122C116.164 50.9131 116.055 51.8921 116.075 53.0589ZM134.568 62.1366C133.243 62.1366 132.067 61.8202 131.038 61.1873C130.029 60.5545 129.238 59.6843 128.665 58.5767C128.091 57.4494 127.805 56.1639 127.805 54.7202C127.805 53.1182 128.091 51.7042 128.665 50.478C129.238 49.2518 130.049 48.2827 131.097 47.5707C132.165 46.8588 133.402 46.4731 134.806 46.4138C135.142 46.394 135.547 46.4237 136.022 46.5028C136.497 46.5819 137.011 46.6709 137.565 46.7698C137.921 46.8489 138.267 46.928 138.603 47.0071C138.939 47.0664 139.236 47.0862 139.493 47.0664V51.6943H138.217C138.118 50.923 137.881 50.211 137.505 49.5583C137.149 48.8859 136.704 48.3519 136.17 47.9564C135.656 47.5411 135.083 47.3334 134.45 47.3334C133.757 47.3532 133.154 47.6202 132.64 48.1344C132.126 48.6486 131.72 49.3705 131.424 50.3C131.127 51.2295 130.979 52.2975 130.979 53.5039C130.979 54.829 131.186 56.0057 131.602 57.0341C132.017 58.0625 132.581 58.8734 133.293 59.4667C134.005 60.06 134.816 60.3567 135.725 60.3567C136.259 60.3567 136.882 60.1985 137.594 59.882C138.306 59.5656 138.949 59.1701 139.523 58.6954L140.146 59.4964C139.473 60.2677 138.613 60.9006 137.565 61.395C136.536 61.8894 135.537 62.1366 134.568 62.1366ZM141.418 61.7213V61.128L144.444 60.0897L144.029 60.683V40.0653L144.474 40.5399L141.122 40.095V39.5313L146.966 37.9294L147.263 38.1964L147.203 40.4213V48.698L146.996 48.4607C147.648 47.9267 148.38 47.462 149.191 47.0664C150.002 46.6511 150.763 46.4434 151.475 46.4434C152.523 46.4434 153.453 46.6313 154.264 47.0071C155.075 47.3829 155.707 47.9069 156.162 48.5794C156.637 49.232 156.874 49.9934 156.874 50.8636V60.683L156.459 60.0897L159.455 61.128V61.7213H151.564V60.8907L154.115 60.1194L153.7 60.683V51.6943C153.7 50.567 153.403 49.6473 152.81 48.9354C152.236 48.2036 151.485 47.8377 150.555 47.8377C150.002 47.8377 149.398 48.0355 148.746 48.431C148.113 48.8068 147.53 49.2518 146.996 49.766L147.203 49.1134V60.683L146.788 60.1194L149.339 60.8907V61.7213H141.418ZM159.51 61.7213V61.128L162.625 60.0897L162.18 60.7127V48.52L162.714 49.054L159.272 48.5794V48.0157L165.116 46.4138L165.413 46.6511L165.354 49.143L165.057 48.9057C165.512 48.4904 166.016 48.0948 166.57 47.7191C167.124 47.3433 167.687 47.0368 168.261 46.7994C168.835 46.5621 169.369 46.4434 169.863 46.4434C170.891 46.4434 171.791 46.6313 172.563 47.0071C173.334 47.3829 173.937 47.9069 174.372 48.5794C174.807 49.232 175.025 49.9934 175.025 50.8636V60.7127L174.58 60.0897L177.606 61.128V61.7213H169.715V61.128L172.325 60.0304L171.851 60.7423V51.6943C171.851 50.567 171.584 49.6671 171.05 48.9947C170.516 48.3223 169.814 47.9861 168.943 47.9861C168.568 47.9861 168.142 48.1047 167.668 48.342C167.213 48.5794 166.758 48.8859 166.303 49.2617C165.848 49.6177 165.433 50.0033 165.057 50.4187L165.354 49.6177V60.7423L164.879 60.0304L167.519 61.128V61.7213H159.51ZM185.818 62.1663C184.394 62.1663 183.119 61.8202 181.991 61.128C180.884 60.4358 180.014 59.4865 179.381 58.2801C178.768 57.0539 178.461 55.6596 178.461 54.0972C178.461 52.5941 178.768 51.2691 179.381 50.122C180.014 48.9551 180.884 48.0454 181.991 47.3927C183.119 46.7203 184.394 46.3841 185.818 46.3841C187.242 46.3841 188.498 46.7005 189.586 47.3334C190.693 47.9663 191.554 48.8464 192.167 49.9737C192.78 51.0812 193.086 52.3568 193.086 53.8005C193.086 55.4223 192.78 56.866 192.167 58.1318C191.554 59.3975 190.693 60.3864 189.586 61.0983C188.498 61.8103 187.242 62.1663 185.818 62.1663ZM186.263 61.0983C187.292 61.0983 188.093 60.5347 188.666 59.4074C189.26 58.2603 189.556 56.6979 189.556 54.7202C189.556 52.4656 189.18 50.6955 188.429 49.41C187.697 48.1047 186.679 47.4521 185.373 47.4521C184.325 47.4521 183.494 47.9663 182.881 48.9947C182.288 50.0231 181.991 51.4471 181.991 53.2666C181.991 55.6992 182.367 57.6175 183.119 59.0217C183.89 60.4061 184.938 61.0983 186.263 61.0983ZM193.9 61.7213V61.128L196.926 60.0897L196.511 60.683V40.0653L196.956 40.5399L193.603 40.095V39.5313L199.448 37.9294L199.744 38.1964L199.655 40.4213V60.683L199.27 60.0897L202.355 61.1577V61.7213H193.9ZM210.56 62.1663C209.136 62.1663 207.861 61.8202 206.733 61.128C205.626 60.4358 204.756 59.4865 204.123 58.2801C203.51 57.0539 203.203 55.6596 203.203 54.0972C203.203 52.5941 203.51 51.2691 204.123 50.122C204.756 48.9551 205.626 48.0454 206.733 47.3927C207.861 46.7203 209.136 46.3841 210.56 46.3841C211.984 46.3841 213.24 46.7005 214.328 47.3334C215.435 47.9663 216.296 48.8464 216.909 49.9737C217.522 51.0812 217.828 52.3568 217.828 53.8005C217.828 55.4223 217.522 56.866 216.909 58.1318C216.296 59.3975 215.435 60.3864 214.328 61.0983C213.24 61.8103 211.984 62.1663 210.56 62.1663ZM211.005 61.0983C212.034 61.0983 212.835 60.5347 213.408 59.4074C214.001 58.2603 214.298 56.6979 214.298 54.7202C214.298 52.4656 213.922 50.6955 213.171 49.41C212.439 48.1047 211.421 47.4521 210.115 47.4521C209.067 47.4521 208.236 47.9663 207.623 48.9947C207.03 50.0231 206.733 51.4471 206.733 53.2666C206.733 55.6992 207.109 57.6175 207.861 59.0217C208.632 60.4061 209.68 61.0983 211.005 61.0983ZM226.403 68.1588C225.177 68.1588 224.03 67.9907 222.962 67.6545C221.894 67.3183 221.034 66.8535 220.381 66.2602C219.748 65.6866 219.432 65.0241 219.432 64.2726C219.432 63.6793 219.62 63.0464 219.996 62.374C220.391 61.7213 220.876 61.1082 221.449 60.5347V60.9797C220.955 60.6435 220.549 60.1985 220.233 59.6447C219.936 59.0909 219.788 58.4877 219.788 57.8351C219.788 57.5187 219.877 57.1627 220.055 56.7671C220.253 56.3518 220.5 55.9563 220.797 55.5805C221.093 55.2047 221.4 54.918 221.716 54.7202L221.805 55.0762C221.41 54.6015 221.103 54.0675 220.886 53.4742C220.668 52.8611 220.559 52.2283 220.559 51.5756C220.559 50.5472 220.826 49.6473 221.36 48.876C221.894 48.1047 222.646 47.5114 223.615 47.0961C224.604 46.661 225.721 46.4434 226.967 46.4434C227.778 46.4434 228.51 46.5324 229.162 46.7104C229.815 46.8686 230.379 47.0961 230.853 47.3927L230.112 47.3037L235.273 46.9478V48.1641L235.036 48.4014L231.239 48.1641L231.595 47.9861C231.971 48.3618 232.257 48.8167 232.455 49.3507C232.673 49.8649 232.782 50.4187 232.782 51.012C232.782 52.1195 232.534 53.1083 232.04 53.9785C231.545 54.8487 230.824 55.5311 229.874 56.0255C228.925 56.5199 227.758 56.7671 226.374 56.7671C225.642 56.7671 224.91 56.6584 224.178 56.4408C223.466 56.2035 222.893 55.887 222.458 55.4915L222.666 55.4618C222.586 55.5805 222.488 55.7585 222.369 55.9958C222.25 56.2331 222.141 56.4804 222.043 56.7375C221.963 56.9748 221.924 57.1627 221.924 57.3011C221.924 57.8153 222.122 58.201 222.517 58.4581C222.913 58.7152 223.437 58.8437 224.089 58.8437H230.675C231.704 58.8437 232.524 59.1503 233.138 59.7634C233.751 60.3765 234.057 61.0983 234.057 61.929C234.057 63.1354 233.751 64.2033 233.138 65.1329C232.544 66.0822 231.674 66.8238 230.527 67.3578C229.38 67.8918 228.005 68.1588 226.403 68.1588ZM226.878 66.6755C227.986 66.6755 228.935 66.5469 229.726 66.2898C230.537 66.0525 231.15 65.7064 231.565 65.2515C232 64.7967 232.218 64.2726 232.218 63.6793C232.218 63.2639 232.07 62.9178 231.773 62.6409C231.496 62.3641 231.091 62.1564 230.557 62.018C230.042 61.8795 229.429 61.8103 228.717 61.8103H224.089C223.714 61.8103 223.338 61.7708 222.962 61.6916C222.606 61.5928 222.29 61.4642 222.013 61.306L222.606 61.1873C222.211 61.6026 221.874 61.9883 221.598 62.3443C221.34 62.7003 221.212 63.1453 221.212 63.6793C221.212 64.3121 221.489 64.8461 222.043 65.2812C222.596 65.7361 223.298 66.0822 224.149 66.3195C225.019 66.5568 225.929 66.6755 226.878 66.6755ZM226.759 55.6398C227.61 55.6398 228.272 55.3234 228.747 54.6905C229.222 54.0379 229.459 53.138 229.459 51.9909C229.459 50.5472 229.202 49.4496 228.688 48.698C228.193 47.9465 227.442 47.5707 226.433 47.5707C225.662 47.5707 225.059 47.8674 224.623 48.4607C224.188 49.054 223.971 49.9341 223.971 51.101C223.971 52.5447 224.198 53.6621 224.653 54.4532C225.108 55.2443 225.81 55.6398 226.759 55.6398ZM235.603 61.7213V61.128L238.689 60.1194L238.273 60.8017V48.431L238.718 49.0244L235.366 48.5794V48.0157L241.21 46.4138L241.507 46.6808L241.448 48.876V60.772L241.032 60.06L244.118 61.128V61.7213H235.603ZM239.46 44.0702C238.867 44.0702 238.362 43.8625 237.947 43.4472C237.552 43.0319 237.354 42.5374 237.354 41.9639C237.354 41.3904 237.552 40.8959 237.947 40.4806C238.362 40.0653 238.867 39.8576 239.46 39.8576C240.014 39.8576 240.488 40.0653 240.884 40.4806C241.299 40.8959 241.507 41.3904 241.507 41.9639C241.507 42.5374 241.299 43.0319 240.884 43.4472C240.488 43.8625 240.014 44.0702 239.46 44.0702ZM251.789 62.1366C250.464 62.1366 249.287 61.8202 248.259 61.1873C247.23 60.5347 246.419 59.6447 245.826 58.5174C245.253 57.3901 244.966 56.1046 244.966 54.6609C244.966 53.0391 245.262 51.6152 245.856 50.389C246.449 49.143 247.28 48.1641 248.348 47.4521C249.416 46.7401 250.642 46.3841 252.026 46.3841C253.193 46.3841 254.212 46.6511 255.082 47.1851C255.972 47.6993 256.664 48.4409 257.158 49.41C257.673 50.3593 257.93 51.4965 257.93 52.8216C257.93 52.96 257.93 53.1083 257.93 53.2666C257.93 53.405 257.92 53.5533 257.9 53.7116H247.784L248.288 53.2666C248.269 54.651 248.437 55.887 248.793 56.9748C249.149 58.0428 249.663 58.8833 250.335 59.4964C251.008 60.1095 251.789 60.416 252.679 60.416C253.351 60.416 254.093 60.238 254.904 59.882C255.715 59.526 256.407 59.0613 256.98 58.4877L257.692 59.348C257.297 59.9018 256.773 60.3864 256.12 60.8017C255.487 61.217 254.795 61.5433 254.044 61.7806C253.312 62.018 252.56 62.1366 251.789 62.1366ZM248.229 53.0589L247.725 52.6139L254.785 52.4359L254.548 52.9106C254.528 51.7833 254.36 50.834 254.044 50.0627C253.727 49.2716 253.312 48.6684 252.798 48.253C252.283 47.8377 251.71 47.6301 251.077 47.6301C250.523 47.6301 250.029 47.8476 249.594 48.2827C249.159 48.698 248.812 49.3111 248.555 50.122C248.318 50.9131 248.209 51.8921 248.229 53.0589ZM265.15 62.2256C264.181 62.2256 263.232 62.0773 262.302 61.7806C261.373 61.484 260.671 61.0983 260.196 60.6237L260.433 57.2714H261.234L261.857 58.9327C262.154 59.6447 262.589 60.2182 263.163 60.6533C263.736 61.0687 264.379 61.2763 265.091 61.2763C266.04 61.2763 266.811 61.0192 267.405 60.505C267.998 59.971 268.295 59.3085 268.295 58.5174C268.295 58.0823 268.146 57.7263 267.85 57.4494C267.553 57.1726 267.158 56.9253 266.663 56.7078C266.188 56.4902 265.674 56.2727 265.12 56.0551C264.527 55.8178 263.924 55.5508 263.311 55.2542C262.698 54.9575 262.134 54.6015 261.62 54.1862C261.125 53.7709 260.72 53.2567 260.404 52.6436C260.107 52.0305 259.959 51.2987 259.959 50.4483C259.959 49.6572 260.186 48.965 260.641 48.3717C261.096 47.7586 261.729 47.2741 262.54 46.9181C263.35 46.5621 264.26 46.3841 265.269 46.3841C266.08 46.3841 266.891 46.5028 267.701 46.7401C268.512 46.9576 269.185 47.2147 269.719 47.5114V51.0713H268.858L268.206 49.3803C267.949 48.7475 267.563 48.253 267.049 47.8971C266.535 47.5213 265.961 47.3334 265.328 47.3334C264.517 47.3334 263.845 47.5707 263.311 48.0454C262.797 48.5003 262.54 49.0837 262.54 49.7957C262.54 50.211 262.678 50.567 262.955 50.8636C263.232 51.1405 263.608 51.3877 264.082 51.6053C264.557 51.8228 265.061 52.0404 265.595 52.2579C266.366 52.5744 267.128 52.9501 267.879 53.3852C268.651 53.8203 269.293 54.3939 269.808 55.1058C270.322 55.798 270.579 56.7177 270.579 57.8648C270.579 58.7152 270.342 59.4667 269.867 60.1194C269.412 60.772 268.779 61.2862 267.968 61.662C267.158 62.0377 266.218 62.2256 265.15 62.2256Z" fill="#1E1E1E"/>
<path d="M207.09 54.1613C209.023 54.4218 210.514 56.0786 210.514 58.0835C210.514 58.0953 210.514 58.1071 210.514 58.119L210.514 58.119C210.514 58.1071 210.514 58.0953 210.514 58.0835C210.514 56.0786 212.005 54.4218 213.938 54.1613C212.005 53.9007 210.514 52.244 210.514 50.2391C210.514 50.2273 210.514 50.2155 210.514 50.2036L210.514 50.2036C210.514 50.2155 210.514 50.2273 210.514 50.2391C210.514 52.244 209.023 53.9008 207.09 54.1613Z" fill="#1E1E1E"/>
<path d="M182.273 54.1613C184.207 54.4218 185.698 56.0786 185.698 58.0835C185.698 58.0953 185.698 58.1071 185.697 58.119L185.698 58.119C185.698 58.1071 185.698 58.0953 185.698 58.0835C185.698 56.0786 187.188 54.4218 189.122 54.1613C187.188 53.9007 185.698 52.244 185.698 50.2391C185.698 50.2273 185.698 50.2155 185.698 50.2036L185.697 50.2036C185.698 50.2155 185.698 50.2273 185.698 50.2391C185.698 52.244 184.207 53.9008 182.273 54.1613Z" fill="#1E1E1E"/>
<path d="M185.411 16.2233C187.345 16.4839 188.835 18.1406 188.835 20.1455C188.835 20.1573 188.835 20.1691 188.835 20.181L188.836 20.181C188.835 20.1691 188.835 20.1573 188.835 20.1455C188.835 18.1406 190.326 16.4839 192.26 16.2233C190.326 15.9628 188.835 14.3061 188.835 12.3012C188.835 12.2893 188.835 12.2775 188.836 12.2657L188.835 12.2656C188.835 12.2775 188.835 12.2893 188.835 12.3012C188.835 14.3061 187.345 15.9628 185.411 16.2233Z" fill="#1E1E1E"/>
</svg>
